# xmcd CD database file
#
# Track frame offsets:
#        150
#        23394
#        51697
#        78118
#        121521
#        142977
#        159688
#        183630
#        203107
#        229374
#        253576
#        273966
#        291670
#        307906
#
# Disc length: 4545 seconds
#
# Revision: 0
# Processed by: cddbd v1.5.2PL0 Copyright (c) Steve Scherf et al.
# Submitted via: CUERipper 2.1.5
#
DISCID=c211bf0e
DTITLE=Hot Tuna - Keep On Truckin’: The Very Best of Hot Tuna
DYEAR=2006
DGENRE=
TTITLE0=Hesitation Blues (live)
TTITLE1=Death Don’t Have No Mercy (live)
TTITLE2=Candy Man (live)
TTITLE3=Come Back Baby (live)
TTITLE4=True Religion
TTITLE5=Keep On Truckin’
TTITLE6=Water Song
TTITLE7=I See the Light
TTITLE8=Funky #7
TTITLE9=Walkin’ Blues
TTITLE10=Sunrise Dance With the Devil
TTITLE11=I Can’t Be Satisfied
TTITLE12=Keep Your Lamps Trimmed and Burning (live)
TTITLE13=Killing Time in the Crystal City (live)
EXTD=
EXTT0=
EXTT1=
EXTT2=
EXTT3=
EXTT4=
EXTT5=
EXTT6=
EXTT7=
EXTT8=
EXTT9=
EXTT10=
EXTT11=
EXTT12=
EXTT13=
PLAYORDER=
